<svg xmlns="http://www.w3.org/2000/svg" width="200" height="200" fill="none" viewBox="0 0 200 200"><defs><linearGradient id="bridgeAU" x1="0%" x2="100%" y1="0%" y2="0%"><stop offset="0%" style="stop-color:#2dd4bf;stop-opacity:1"/><stop offset="50%" style="stop-color:#5eead4;stop-opacity:1"/><stop offset="100%" style="stop-color:#2dd4bf;stop-opacity:1"/></linearGradient><linearGradient id="bridgeAULight" x1="0%" x2="100%" y1="0%" y2="0%"><stop offset="0%" style="stop-color:#2dd4bf;stop-opacity:.5"/><stop offset="100%" style="stop-color:#5eead4;stop-opacity:.5"/></linearGradient><filter id="auGlow" width="200%" height="200%" x="-50%" y="-50%"><feGaussianBlur result="blur" stdDeviation="2"/><feMerge><feMergeNode in="blur"/><feMergeNode in="SourceGraphic"/></feMerge></filter></defs><circle cx="100" cy="100" r="90" stroke="rgba(45,212,191,0.1)" stroke-width=".5"/><circle cx="100" cy="100" r="70" stroke="rgba(45,212,191,0.06)" stroke-width=".5"/><path stroke="url(#bridgeAU)" stroke-linecap="round" stroke-width="2.5" d="M15 105q85-90 170 0"/><path stroke="url(#bridgeAULight)" stroke-linecap="round" stroke-width="1.2" d="M28 105q72-73 144 0" opacity=".7"/><path stroke="#2dd4bf" stroke-width=".8" d="M40 105V68m15 37V52m15 53V42m15 63V36m15 69V34m15 71V36m15 69V42m15 63V52m15 53V68" opacity=".5"/><path stroke="url(#bridgeAU)" stroke-linecap="round" stroke-width="2.5" d="M10 105h180"/><path stroke="url(#bridgeAU)" stroke-linecap="round" stroke-width="2.5" d="M15 105v30"/><path stroke="url(#bridgeAU)" stroke-linecap="round" stroke-width="2.5" d="M185 105v30"/><circle cx="15" cy="105" r="4" stroke="#2dd4bf" stroke-width="1.5"/><circle cx="185" cy="105" r="4" stroke="#2dd4bf" stroke-width="1.5"/><circle cx="100" cy="34" r="3.5" stroke="#2dd4bf" stroke-width="1.2" opacity=".8"/><g filter="url(#auGlow)" transform="translate(100 118)"><path stroke="rgba(212,165,116,0.85)" stroke-linecap="round" d="M-35 0q0-28 35-28T35 0"/><path stroke="rgba(212,165,116,0.75)" stroke-linecap="round" stroke-width=".9" d="M-28 2q0-24 28-24T28 2"/><path stroke="rgba(212,165,116,0.65)" stroke-linecap="round" stroke-width=".8" d="M-22 4q0-21 22-21T22 4"/><path stroke="rgba(212,165,116,0.55)" stroke-linecap="round" stroke-width=".7" d="M-16 6q0-18 16-18T16 6"/><path stroke="rgba(212,165,116,0.45)" stroke-linecap="round" stroke-width=".6" d="M-10 8Q-10-7 0-7T10 8"/><path stroke="rgba(212,165,116,0.35)" stroke-linecap="round" stroke-width=".5" d="M-5 10Q-5-3 0-3t5 13"/><circle cy="2" r="2.5" fill="#d4a574" opacity=".9"/></g><path stroke="rgba(45,212,191,0.5)" stroke-width=".8" d="M60 135v13l-15 10m27-23v17l-14 13m-8-30v7l-12 8m50-15v20l12 15m0-35v43m12-43v20l-12 15m28-35v13l14 10m-2-23v17l15 13m-5-30v7l12 8"/><g stroke="#d4a574" filter="url(#auGlow)"><circle cx="45" cy="158" r="3.5" stroke-width="1.5" opacity=".9"/><circle cx="58" cy="165" r="3" stroke-width="1.2" opacity=".85"/><circle cx="38" cy="150" r="2.5" opacity=".8"/><circle cx="100" cy="170" r="3.5" stroke-width="1.5" opacity=".9"/><circle cx="100" cy="178" r="3" stroke-width="1.2" opacity=".85"/><circle cx="142" cy="158" r="3.5" stroke-width="1.5" opacity=".9"/><circle cx="155" cy="165" r="3" stroke-width="1.2" opacity=".85"/><circle cx="162" cy="150" r="2.5" opacity=".8"/></g><g fill="#2dd4bf" opacity=".5"><circle cx="30" cy="105" r="1.5"/><circle cx="50" cy="105" r="1.5"/><circle cx="70" cy="105" r="1.5"/><circle cx="90" cy="105" r="1.5"/><circle cx="110" cy="105" r="1.5"/><circle cx="130" cy="105" r="1.5"/><circle cx="150" cy="105" r="1.5"/><circle cx="170" cy="105" r="1.5"/></g><circle cx="100" cy="170" r="6" stroke="#d4a574" stroke-width=".5" opacity=".4"><animate attributeName="r" dur="3s" repeatCount="indefinite" values="6;10;6"/><animate attributeName="opacity" dur="3s" repeatCount="indefinite" values="0.4;0;0.4"/></circle></svg>